name rise49.5252peak65.1548fall88.8305.mot
datacolumns 19
datarows 24
range 6.89330500000000 6.93163900000000
endheader
time	ground_force1_vx	ground_force1_vy	ground_force1_vz	ground_force1_px	ground_force1_py	ground_force1_pz	ground_force2_vx	ground_force2_vy	ground_force2_vz	ground_force2_px	ground_force2_py	ground_force2_pz	ground_torque1_x	ground_torque1_y	ground_torque1_z	ground_torque2_x	ground_torque2_y	ground_torque2_z	
6.89330500000000	3.78460000000000	691.63966700000003	43.39686400000000	0.24217900000000	0.00000000000000	0.11330100000000	0.00000000000000	0.00000000000000	0.00000000000000	0.00000000000000	0.00000000000000	0.00000000000000	0.00000000000000	20.03614800000000	0.00000000000000	0.00000000000000	0.00000000000000	0.00000000000000	
6.89496700000000	3.51431700000000	692.10233400000004	43.43888000000000	0.24191500000000	0.00000000000000	0.11328200000000	0.00000000000000	0.00000000000000	0.00000000000000	0.00000000000000	0.00000000000000	0.00000000000000	0.00000000000000	20.10170800000000	0.00000000000000	0.00000000000000	0.00000000000000	0.00000000000000	
6.89663600000000	3.23589300000000	692.63175100000001	43.48377100000000	0.24166400000000	0.00000000000000	0.11326100000000	0.00000000000000	0.00000000000000	0.00000000000000	0.00000000000000	0.00000000000000	0.00000000000000	0.00000000000000	20.17207400000000	0.00000000000000	0.00000000000000	0.00000000000000	0.00000000000000	
6.89830500000000	2.94875600000000	693.22708299999999	43.53120900000000	0.24142400000000	0.00000000000000	0.11324000000000	0.00000000000000	0.00000000000000	0.00000000000000	0.00000000000000	0.00000000000000	0.00000000000000	0.00000000000000	20.24702100000000	0.00000000000000	0.00000000000000	0.00000000000000	0.00000000000000	
6.89997100000000	2.65236400000000	693.88746400000002	43.58088000000000	0.24119000000000	0.00000000000000	0.11321700000000	0.00000000000000	0.00000000000000	0.00000000000000	0.00000000000000	0.00000000000000	0.00000000000000	0.00000000000000	20.32631800000000	0.00000000000000	0.00000000000000	0.00000000000000	0.00000000000000	
6.90164300000000	2.34621700000000	694.61199299999998	43.63248700000000	0.24095800000000	0.00000000000000	0.11319300000000	0.00000000000000	0.00000000000000	0.00000000000000	0.00000000000000	0.00000000000000	0.00000000000000	0.00000000000000	20.40973500000000	0.00000000000000	0.00000000000000	0.00000000000000	0.00000000000000	
6.90329800000000	2.02985300000000	695.39973899999995	43.68575100000000	0.24072300000000	0.00000000000000	0.11316800000000	0.00000000000000	0.00000000000000	0.00000000000000	0.00000000000000	0.00000000000000	0.00000000000000	0.00000000000000	20.49703800000000	0.00000000000000	0.00000000000000	0.00000000000000	0.00000000000000	
6.90496500000000	1.70285300000000	696.24973100000000	43.74040900000000	0.24048300000000	0.00000000000000	0.11314300000000	0.00000000000000	0.00000000000000	0.00000000000000	0.00000000000000	0.00000000000000	0.00000000000000	0.00000000000000	20.58799700000000	0.00000000000000	0.00000000000000	0.00000000000000	0.00000000000000	
6.90663800000000	1.36484700000000	697.16096400000004	43.79621800000000	0.24023200000000	0.00000000000000	0.11311800000000	0.00000000000000	0.00000000000000	0.00000000000000	0.00000000000000	0.00000000000000	0.00000000000000	0.00000000000000	20.68238000000000	0.00000000000000	0.00000000000000	0.00000000000000	0.00000000000000	
6.90830700000000	1.01551100000000	698.13239499999997	43.85295700000000	0.23996800000000	0.00000000000000	0.11309200000000	0.00000000000000	0.00000000000000	0.00000000000000	0.00000000000000	0.00000000000000	0.00000000000000	0.00000000000000	20.77995800000000	0.00000000000000	0.00000000000000	0.00000000000000	0.00000000000000	
6.90996500000000	0.65457200000000	699.16293900000005	43.91042000000000	0.23968600000000	0.00000000000000	0.11306700000000	0.00000000000000	0.00000000000000	0.00000000000000	0.00000000000000	0.00000000000000	0.00000000000000	0.00000000000000	20.88050500000000	0.00000000000000	0.00000000000000	0.00000000000000	0.00000000000000	
6.91164100000000	0.28181000000000	700.25146800000005	43.96842700000000	0.23938400000000	0.00000000000000	0.11304200000000	0.00000000000000	0.00000000000000	0.00000000000000	0.00000000000000	0.00000000000000	0.00000000000000	0.00000000000000	20.98379600000000	0.00000000000000	0.00000000000000	0.00000000000000	0.00000000000000	
6.91330000000000	-0.10294400000000	701.39681199999995	44.02681700000000	0.23905900000000	0.00000000000000	0.11301700000000	0.00000000000000	0.00000000000000	0.00000000000000	0.00000000000000	0.00000000000000	0.00000000000000	0.00000000000000	21.08961300000000	0.00000000000000	0.00000000000000	0.00000000000000	0.00000000000000	
6.91497100000000	-0.49980000000000	702.59775200000001	44.08544900000000	0.23870600000000	0.00000000000000	0.11299200000000	0.00000000000000	0.00000000000000	0.00000000000000	0.00000000000000	0.00000000000000	0.00000000000000	0.00000000000000	21.19774000000000	0.00000000000000	0.00000000000000	0.00000000000000	0.00000000000000	
6.91663800000000	-0.90881300000000	703.85302100000001	44.14420500000000	0.23832500000000	0.00000000000000	0.11296900000000	0.00000000000000	0.00000000000000	0.00000000000000	0.00000000000000	0.00000000000000	0.00000000000000	0.00000000000000	21.30796900000000	0.00000000000000	0.00000000000000	0.00000000000000	0.00000000000000	
6.91830200000000	-1.32998300000000	705.16130199999998	44.20299000000000	0.23791100000000	0.00000000000000	0.11294600000000	0.00000000000000	0.00000000000000	0.00000000000000	0.00000000000000	0.00000000000000	0.00000000000000	0.00000000000000	21.42009600000000	0.00000000000000	0.00000000000000	0.00000000000000	0.00000000000000	
6.91997200000000	-1.76324800000000	706.52122399999996	44.26172900000000	0.23746400000000	0.00000000000000	0.11292400000000	0.00000000000000	0.00000000000000	0.00000000000000	0.00000000000000	0.00000000000000	0.00000000000000	0.00000000000000	21.53392400000000	0.00000000000000	0.00000000000000	0.00000000000000	0.00000000000000	
6.92163400000000	-2.20849100000000	707.93136300000003	44.32036900000000	0.23698100000000	0.00000000000000	0.11290300000000	0.00000000000000	0.00000000000000	0.00000000000000	0.00000000000000	0.00000000000000	0.00000000000000	0.00000000000000	21.64926300000000	0.00000000000000	0.00000000000000	0.00000000000000	0.00000000000000	
6.92330800000000	-2.66553700000000	709.39023599999996	44.37887800000000	0.23646100000000	0.00000000000000	0.11288300000000	0.00000000000000	0.00000000000000	0.00000000000000	0.00000000000000	0.00000000000000	0.00000000000000	0.00000000000000	21.76593000000000	0.00000000000000	0.00000000000000	0.00000000000000	0.00000000000000	
6.92497800000000	-3.13415200000000	710.89630499999998	44.43724600000000	0.23590200000000	0.00000000000000	0.11286500000000	0.00000000000000	0.00000000000000	0.00000000000000	0.00000000000000	0.00000000000000	0.00000000000000	0.00000000000000	21.88374900000000	0.00000000000000	0.00000000000000	0.00000000000000	0.00000000000000	
6.92663100000000	-3.61404600000000	712.44797100000005	44.49548400000000	0.23530400000000	0.00000000000000	0.11284700000000	0.00000000000000	0.00000000000000	0.00000000000000	0.00000000000000	0.00000000000000	0.00000000000000	0.00000000000000	22.00255200000000	0.00000000000000	0.00000000000000	0.00000000000000	0.00000000000000	
6.92830300000000	-4.10487200000000	714.04357400000004	44.55362300000000	0.23466600000000	0.00000000000000	0.11283200000000	0.00000000000000	0.00000000000000	0.00000000000000	0.00000000000000	0.00000000000000	0.00000000000000	0.00000000000000	22.12218000000000	0.00000000000000	0.00000000000000	0.00000000000000	0.00000000000000	
6.92996800000000	-4.60622900000000	715.68139699999995	44.61171400000000	0.23398700000000	0.00000000000000	0.11281700000000	0.00000000000000	0.00000000000000	0.00000000000000	0.00000000000000	0.00000000000000	0.00000000000000	0.00000000000000	22.24248000000000	0.00000000000000	0.00000000000000	0.00000000000000	0.00000000000000	
6.93163900000000	-5.11766200000000	717.35965599999997	44.66982700000000	0.23326800000000	0.00000000000000	0.11280400000000	0.00000000000000	0.00000000000000	0.00000000000000	0.00000000000000	0.00000000000000	0.00000000000000	0.00000000000000	22.36330800000000	0.00000000000000	0.00000000000000	0.00000000000000	0.00000000000000	
